<?xml standalone="no"?>
<!DOCTYPE svg PUBLIC "-//W3C//DTD SVG 1.1//EN" "http://www.w3.org/Graphics/SVG/1.1/DTD/svg11.dtd">
<svg viewBox="79.04945043994924 15.559229991105575 403.65136431251244 471.98877000889456" xmlns="http://www.w3.org/2000/svg" fill="currentColor" aria-hidden="true" focusable="false">

<g>
	
	<clipPath id="SVGID_00000152944960014834128670000003711559848762747569_">
		<use xlink:href="#SVGID_1_" style="overflow:visible;"/>
	</clipPath>
	<g style="clip-path:url(#SVGID_00000152944960014834128670000003711559848762747569_);">
		<path fill="currentColor" d="M322,136.8c2.8-4.9,4.6-8,6.5-11.1c18.3-29.8,44.5-46.7,79.9-46.4c41.9,0.3,72.2,30.6,72.3,72.4    c0.1,33.5-9,64.7-30.2,91.2c-8.6,10.7-18.1,20.9-28.2,30.2c-6.9,6.3-9.6,12.4-8.2,21.8c3.9,27,0.9,53.7-6.4,79.9    c-8.3,29.6-22.2,56.1-41,80.4c-15,19.4-34.4,28.9-58.1,29.7c-27.6,0.9-55.2,0.6-82.8,0.6c-8.4,0-16.8-0.4-25.2-0.5    c-14.2-0.3-27-4.6-38.7-12.8c-14.3-10.1-25.9-22.6-35.1-37.3c-26.6-42.8-43.6-88.8-45.6-139.5c-1.8-46.3,12.5-86.8,45.1-120.3    c6.6-6.8,13.2-13.4,19.7-20.3c14.8-15.5,18.5-34,13.4-54.3c-2.9-11.4-6.9-22.5-10.6-33.7c-1.2-3.8-2.9-7.5-4.1-11.4    c-3-10-1.1-15.9,8.7-19.4c11.9-4.4,24.4-7.7,36.8-10.3c43.2-8.9,86.8-9.9,130.7-5.9c2.7,0.2,5.4,0.6,7.9,1.4    c7.9,2.4,12.2,7.1,12,15.4c-0.2,6.6-1.4,13.4-3.8,19.5c-7.3,18.6-12.3,37.8-15.7,57.3C320.1,120.5,318.8,127.5,322,136.8z     M402.1,240.5c18.3-15.9,31.3-33.2,38.4-54.4c5.3-15.7,6.3-31.7,1.2-47.6c-3.6-11.3-11.5-18.1-23.5-19.1    c-25.7-2.3-45.6,8.7-62.1,27.2c-3.5,3.9-6,8.6-9.3,13.5C373.9,181.3,391.3,208,402.1,240.5z"/>
	</g>
</g>
</svg>