<svg xmlns="http://www.w3.org/2000/svg" fill="currentColor" aria-hidden="true" viewBox="80.629 30.234 230.094 327.262"><path d="M309.738 82.336c5.867-34.527-18.789-61.273-53.695-48.871-26.297 10.613-41.285 37.008-55.89 59.816-16.055 22.79-8.579 30.91-17.895 1.867-23.715-59.078-100.903-69.343-101.524 8.047.633 34.91 30.207 61.368 59.77 75.325 24.117 10.203 18.578 1.937 12.414 27.058-10.973 40.277-17.496 81.762-23.305 123.043-8.347 31.05 17.672 38.754 18.668 14.508.2-5.215.785-11.371 1.457-16.543 6.106-44.606-2.226-14.89 59.344-27.629 24.297-4.906 50.895-18.21 57.941-43.863 3.356-14.535 4.48-32.535-6.656-44.074-28.664-26.473-67.12 2.62-91.86 21.066-5.167 5.926 2.161-13.676 2.446-17.055a467 467 0 0 1 19.95-59.37c46.074-2.2 112.85-18.516 118.831-73.34ZM161.766 164.5c-28.125-9.57-61.707-32.223-60.348-65.375 1.625-10.71 2.543-24.844 13.777-29.941 10.977-4.055 23.055 2.05 31.418 9.09 16.43 13.87 23.172 35.75 22.977 56.703-.863 6.703 2.062 33.359-7.824 29.515Zm-.508 107.625c8.754-17.965 25.332-30.535 42.398-40.11 12.309-6.87 30.239-18.687 42.762-6.285 6.527 12.743.883 32.262-10.95 40.293-16.952 12.157-38.816 15.204-59.214 15.477-6.149 0-12.262-.43-18.348-1.32-2.48-.989 3.36-5.618 3.344-8.051ZM288.074 85.566c-3.59 19.88-22.414 30.95-39.84 37.657-15.18 5.761-31.504 8.996-47.53 11.265 1.503-4.41 5.519-10.96 7.948-15.68 14.121-22.94 27.008-49.695 50.57-64.308 25.864-12.055 34.68 8.348 28.852 31.066m0 0"/></svg>