<svg color="#FF7A3A" xmlns="http://www.w3.org/2000/svg" fill="currentColor" aria-hidden="true" viewBox="13.884 18.498 448.478 314.692"><path d="M427.9 101.1C349.2 78.4 269.2 70.2 191.2 56c-2.1 2.4-3.7 3.5-3.7 4.5.2 31.6-12.8 60.8-16.5 91.6-3.4 29.1-5.8 58.1 7.1 86 5.4 11.7 1.8 21.4-8.4 29.3-3.4 2.7-7.2 6.6-8 10.6-2.8 14.2-12.9 19.9-25.1 21-24.2 2.2-48.7 2.5-72.1-5.7-22.1-7.7-38.4-22.1-45.8-45-9.8-30.1 6.7-56.1 38.3-57 17.1-.5 34.3 3.6 51.4 6.1 6.7 1 13.3 3.2 21 5.2 2.1-20.3 2.5-39.7 6.3-58.3 5.5-27.1 13.1-53.8 20.8-80.5 2.7-9.3 5.4-16.8-3.6-24.2-2.9-2.4-5.4-10.2-3.7-12.4 2.7-3.7 8.9-6.8 13.5-6.7 18 .5 36 2.3 54 3.8 67.1 5.9 134.1 12.6 199.6 29.2 10.7 2.7 21.4 6.1 31.4 10.7 9.5 4.4 13.2 12.2 12.6 23.7-2.9 57.4-4.8 114.8-6.8 172.2-.4 12.4 0 24.8-.3 37.2-.6 20.1-16.2 35.2-37.1 33.8-20.1-1.4-40-5.7-57.5-16.6-19.6-12.2-31.2-29.5-31.3-53.1-.2-26.4 16.5-43.7 42.7-43.1 13.7.3 27.3 3.4 42.7 5.4 4.9-40.8 10-81.5 15.2-122.6"/></svg>